<svg version="1.0" xmlns="http://www.w3.org/2000/svg" xmlns:xlink="http://www.w3.org/1999/xlink" width="60" height="37.5" x="0px" y="0px"
	 viewBox="0 0 233.6 146.2" style="enable-background:new 0 0 233.6 146.2;" xml:space="preserve">
<style type="text/css">
	.st0{fill:#231815;}
	.st1{font-family:'ArialMT';}
	.st2{font-size:18px;}
	.st3{fill:#C30D23;}
	.st4{fill:#036EB8;}
	.st5{fill:#2EA7E0;}
	.st6{fill:#7A6A56;}
	.st7{fill:#545252;}
	.st8{font-size:14px;}
</style>
<text id="XMLID_81_" transform="matrix(0.7456 -0.9686 0.7924 0.61 81.7536 59.1344)" class="st0 st1 st2">PTEN</text>
<g id="XMLID_70_">
	<g id="XMLID_77_">
		<path id="XMLID_78_" class="st3" d="M125,14.6c6.4,0,11.5,5.2,11.5,11.5c0,6.4-5.2,11.5-11.5,11.5c-6.4,0-11.5-5.2-11.5-11.5
			C113.5,19.8,118.7,14.6,125,14.6z M125,33.7c4.2,0,7.5-3.4,7.5-7.5s-3.4-7.5-7.5-7.5c-4.2,0-7.5,3.4-7.5,7.5S120.9,33.7,125,33.7z
			"/>
	</g>
	<g id="XMLID_73_">
		<path id="XMLID_74_" class="st3" d="M108.2,32.1c3.9,0,7.1,3.2,7.1,7.1s-3.2,7.1-7.1,7.1s-7.1-3.2-7.1-7.1S104.3,32.1,108.2,32.1z
			 M108.2,42.4c1.7,0,3.2-1.4,3.2-3.2c0-1.7-1.4-3.2-3.2-3.2s-3.2,1.4-3.2,3.2C105,41,106.5,42.4,108.2,42.4z"/>
	</g>
	<g id="XMLID_71_">
		<path id="XMLID_72_" class="st3" d="M119.9,46.3c2.5,0,4.4,2,4.4,4.4c0,2.5-2,4.4-4.4,4.4s-4.4-2-4.4-4.4
			C115.4,48.2,117.4,46.3,119.9,46.3z"/>
	</g>
</g>
<g id="XMLID_21_">
	<g id="XMLID_67_">
		<g id="XMLID_68_">
			<path id="XMLID_69_" class="st4" d="M110.6,111.6c0.1-1.3-1.9-1.5-2-0.2C108.5,112.7,110.5,112.9,110.6,111.6L110.6,111.6z"/>
		</g>
	</g>
	<g id="XMLID_64_">
		<g id="XMLID_65_">
			<path id="XMLID_66_" class="st4" d="M159.9,129.5c0.1-1.3-1.9-1.5-2-0.2C157.7,130.7,159.8,130.8,159.9,129.5L159.9,129.5z"/>
		</g>
	</g>
	<g id="XMLID_61_">
		<g id="XMLID_62_">
			<path id="XMLID_63_" class="st4" d="M85.8,91.1c0.1-1.3-1.9-1.5-2-0.2C83.7,92.2,85.7,92.4,85.8,91.1L85.8,91.1z"/>
		</g>
	</g>
	<g id="XMLID_58_">
		<g id="XMLID_59_">
			<path id="XMLID_60_" class="st4" d="M122.4,113c0.2-2.5-3.6-2.8-3.8-0.3C118.4,115.2,122.2,115.5,122.4,113L122.4,113z"/>
		</g>
	</g>
	<g id="XMLID_55_">
		<g id="XMLID_56_">
			<path id="XMLID_57_" class="st4" d="M136.5,104.2c0.2-2.9-4.2-3.3-4.5-0.4C131.8,106.8,136.3,107.2,136.5,104.2L136.5,104.2z"/>
		</g>
	</g>
	<g id="XMLID_52_">
		<g id="XMLID_53_">
			<path id="XMLID_54_" class="st4" d="M144.6,116.2c0.2-1.9-2.7-2.2-2.9-0.3C141.5,117.9,144.4,118.1,144.6,116.2L144.6,116.2z"/>
		</g>
	</g>
	<g id="XMLID_49_">
		<g id="XMLID_50_">
			<path id="XMLID_51_" class="st4" d="M112.2,91.5c0.2-2.5-3.6-2.9-3.8-0.3C108.1,93.7,112,94,112.2,91.5L112.2,91.5z"/>
		</g>
	</g>
	<g id="XMLID_46_">
		<g id="XMLID_47_">
			<path id="XMLID_48_" class="st4" d="M94,104.1c0.2-2.4-3.5-2.8-3.7-0.3C90,106.2,93.8,106.5,94,104.1L94,104.1z"/>
		</g>
	</g>
	<g id="XMLID_43_">
		<g id="XMLID_44_">
			<path id="XMLID_45_" class="st4" d="M153.3,94c0.2-2.2-3.2-2.5-3.4-0.3C149.7,96,153.1,96.3,153.3,94L153.3,94z"/>
		</g>
	</g>
	<g id="XMLID_40_">
		<g id="XMLID_41_">
			<path id="XMLID_42_" class="st4" d="M117.1,129.3c0.2-2.3-3.3-2.6-3.5-0.3C113.4,131.3,116.9,131.6,117.1,129.3L117.1,129.3z"/>
		</g>
	</g>
	<g id="XMLID_37_">
		<g id="XMLID_38_">
			<path id="XMLID_39_" class="st4" d="M96.7,124.7c0.3-3.3-4.7-3.7-5-0.4C91.4,127.5,96.4,127.9,96.7,124.7L96.7,124.7z"/>
		</g>
	</g>
	<g id="XMLID_34_">
		<g id="XMLID_35_">
			<path id="XMLID_36_" class="st4" d="M91.7,78.4c0.1-1.2-1.8-1.4-1.9-0.2C89.7,79.5,91.6,79.6,91.7,78.4L91.7,78.4z"/>
		</g>
	</g>
	<g id="XMLID_31_">
		<g id="XMLID_32_">
			<path id="XMLID_33_" class="st4" d="M161.5,105.1c0.2-2.1-3.1-2.4-3.3-0.3C158.1,106.9,161.4,107.2,161.5,105.1L161.5,105.1z"/>
		</g>
	</g>
	<g id="XMLID_28_">
		<g id="XMLID_29_">
			<path id="XMLID_30_" class="st4" d="M126.5,85.9c0.1-0.8-1.1-0.9-1.2-0.1S126.5,86.7,126.5,85.9L126.5,85.9z"/>
		</g>
	</g>
	<g id="XMLID_25_">
		<g id="XMLID_26_">
			<path id="XMLID_27_" class="st4" d="M136,129c0.2-2.1-3-2.4-3.2-0.3C132.6,130.8,135.8,131.1,136,129L136,129z"/>
		</g>
	</g>
	<g id="XMLID_22_">
		<g id="XMLID_23_">
			<path id="XMLID_24_" class="st4" d="M81.5,130.4c0.1-1.5-2.1-1.7-2.3-0.2C79.1,131.7,81.4,131.9,81.5,130.4L81.5,130.4z"/>
		</g>
	</g>
</g>
<g id="XMLID_19_">
	<path id="XMLID_20_" class="st5" d="M168.4,83.2c-6.4,0-9.5-2.7-11.9-4.8c-2.4-2.1-3.8-3.1-6.2-3.1c-2.4,0-3.8,0.9-6.2,3.1
		c-2.5,2.2-5.6,4.9-11.9,4.9s-9.5-2.7-11.9-4.9c-2.4-2.1-3.8-3.1-6.2-3.1s-3.8,0.9-6.2,3.1c-2.5,2.2-5.6,4.9-11.9,4.9
		c-6.4,0-9.4-2.7-11.9-4.9c-2.4-2.1-3.8-3.1-6.2-3.1c-2.4,0-3.7,0.9-6.2,3.1c-2.5,2.2-5.5,4.9-11.9,4.9s-9.5-2.7-11.9-4.9
		c-2.4-2.1-3.8-3.1-6.2-3.1c-1.9,0-3.4-0.9-3.4-2c0-1.1,1.5-2,3.4-2c6.4,0,9.5,2.7,11.9,4.9c2.4,2.1,3.8,3.1,6.2,3.1
		c2.4,0,3.7-0.9,6.2-3.1c2.5-2.2,5.5-4.9,11.9-4.9s9.4,2.7,11.9,4.9c2.4,2.1,3.8,3.1,6.2,3.1c2.4,0,3.8-0.9,6.2-3.1
		c2.5-2.2,5.6-4.9,11.9-4.9c6.4,0,9.5,2.7,11.9,4.9c2.4,2.1,3.8,3.1,6.2,3.1c2.4,0,3.8-0.9,6.2-3.1c2.5-2.2,5.6-4.9,11.9-4.9
		c6.4,0,9.5,2.7,11.9,4.9c2.5,2.1,3.8,3.1,6.2,3.1s3.8-0.9,6.2-3.1c2.5-2.2,5.6-4.9,11.9-4.9c1.9,0,3.4,0.9,3.4,2c0,1.1-1.5,2-3.4,2
		c-2.4,0-3.8,0.9-6.2,3.1C177.9,80.5,174.8,83.2,168.4,83.2z"/>
</g>
<path id="XMLID_18_" class="st6" d="M155.3,138.7H74.6c-20.5,0-37.2-16.7-37.2-37.2V54.8c0-1.1,0.9-2,2-2l2,4v44.7
	c0,18.3,14.9,33.2,33.2,33.2h80.7c18.3,0,33.2-14.9,33.2-33.2V56.8l2-4c1.1,0,2,0.9,2,2v46.7C192.5,122,175.8,138.7,155.3,138.7z"/>
<g id="XMLID_11_">
	<g id="XMLID_14_">
		<path id="XMLID_15_" class="st6" d="M204.6,104.4c-7.9,0-14.4-6.5-14.4-14.4s6.5-14.4,14.4-14.4c7.9,0,14.4,6.5,14.4,14.4
			S212.6,104.4,204.6,104.4z M204.6,79.6c-5.7,0-10.4,4.7-10.4,10.4c0,5.7,4.7,10.4,10.4,10.4c5.7,0,10.4-4.7,10.4-10.4
			C215,84.3,210.4,79.6,204.6,79.6z"/>
	</g>
	<g id="XMLID_12_">
		<path id="XMLID_13_" class="st6" d="M204.8,112.8h-13.3c-1.1,0-2-0.9-2-2c0-1.1,0.9-2,2-2h13.3c10.4,0,18.8-8.4,18.8-18.8
			s-8.4-18.8-18.8-18.8c-4.4,0-8.6,1.5-12,4.3c-0.9,0.7-2.1,0.6-2.8-0.3c-0.7-0.9-0.6-2.1,0.3-2.8c4.1-3.4,9.2-5.2,14.5-5.2
			c12.6,0,22.8,10.2,22.8,22.8C227.6,102.6,217.4,112.8,204.8,112.8z"/>
	</g>
</g>
<g id="XMLID_4_">
	<g id="XMLID_7_">
		<path id="XMLID_8_" class="st6" d="M12.6,90c0-7.9,6.5-14.4,14.4-14.4S41.4,82.1,41.4,90s-6.5,14.4-14.4,14.4S12.6,98,12.6,90z
			 M16.6,90c0,5.7,4.7,10.4,10.4,10.4S37.4,95.8,37.4,90S32.7,79.6,27,79.6S16.6,84.3,16.6,90z"/>
	</g>
	<g id="XMLID_5_">
		<path id="XMLID_6_" class="st6" d="M26.8,112.8h13.3c1.1,0,2-0.9,2-2c0-1.1-0.9-2-2-2H26.8C16.4,108.8,8,100.4,8,90
			s8.4-18.8,18.8-18.8c4.4,0,8.6,1.5,12,4.3c0.9,0.7,2.1,0.6,2.8-0.3c0.7-0.9,0.6-2.1-0.3-2.8c-4.1-3.4-9.2-5.2-14.5-5.2
			C14.2,67.2,4,77.5,4,90C4,102.6,14.2,112.8,26.8,112.8z"/>
	</g>
</g>
<path id="XMLID_3_" class="st7" d="M37.3,54.8"/>
<path id="XMLID_2_" class="st7" d="M37.3,54.8"/>
<text id="XMLID_1_" transform="matrix(1.2222 -1.349430e-02 1.104000e-02 0.9999 132.0238 50.7052)" class="st0 st1 st8">MYC</text>
</svg>
